<?xml version="1.0" encoding="utf-8"?>
<!-- Generator: Adobe Illustrator 24.1.1, SVG Export Plug-In . SVG Version: 6.00 Build 0)  -->
<svg version="1.1" id="Layer_1" xmlns="http://www.w3.org/2000/svg" xmlns:xlink="http://www.w3.org/1999/xlink" x="0px" y="0px"
	 viewBox="0 0 142.5 168.9" style="enable-background:new 0 0 142.5 168.9;" xml:space="preserve">
<style type="text/css">
	.st0{fill:#595959;}
	.st1{fill:#212121;}
</style>
<g>
	<g>
		<path class="st0" d="M36.2,101.6c2.8,0,5,0.8,6.8,2.5c1.7,1.7,2.6,3.6,2.6,5.9c0,2.3-0.9,4.2-2.6,5.9c-1.7,1.7-4,2.5-6.7,2.5
			c-2.8,0-5-0.8-6.8-2.5s-2.6-3.6-2.6-5.9c0-2.2,0.9-4.2,2.6-5.9C31.1,102.5,33.4,101.6,36.2,101.6z M36.2,115
			c1.5,0,2.8-0.5,3.7-1.4c0.9-0.9,1.4-2.1,1.4-3.6c0-1.5-0.5-2.7-1.4-3.6c-0.9-0.9-2.2-1.4-3.7-1.4c-1.6,0-2.8,0.5-3.8,1.4
			c-0.9,0.9-1.4,2.1-1.4,3.6c0,1.5,0.5,2.7,1.4,3.6C33.4,114.5,34.6,115,36.2,115z"/>
		<path class="st0" d="M123.7,101.7c2.8,0,5,0.8,6.8,2.5c1.7,1.7,2.6,3.6,2.6,5.9c0,2.3-0.9,4.2-2.6,5.9c-1.7,1.7-4,2.5-6.7,2.5
			c-2.8,0-5-0.8-6.8-2.5c-1.7-1.7-2.6-3.6-2.6-5.9c0-2.2,0.9-4.2,2.6-5.9C118.6,102.6,120.9,101.7,123.7,101.7z M123.7,115.1
			c1.5,0,2.8-0.5,3.7-1.4c0.9-0.9,1.4-2.1,1.4-3.6c0-1.5-0.5-2.7-1.4-3.6c-0.9-0.9-2.2-1.4-3.7-1.4c-1.6,0-2.8,0.5-3.8,1.4
			s-1.4,2.1-1.4,3.6c0,1.5,0.5,2.7,1.4,3.6C120.9,114.6,122.1,115.1,123.7,115.1z"/>
	</g>
	<g>
		<path class="st0" d="M13.1,119l0,3l-12,0l0-16.3l11.9,0l0,3l-7.8,0l0,3.4l7.5,0l0,3l-7.5,0l0,3.9L13.1,119z"/>
		<path class="st0" d="M28.7,119.1l0,3l-12.5,0l0-16.3l4.1,0l0,13.3L28.7,119.1z"/>
		<path class="st0" d="M67.5,105.8l0,16.3l-3.4,0l-9-10.5l0,10.5l-4.1,0l0-16.3l3.7,0l8.7,10l0-10L67.5,105.8z"/>
		<path class="st0" d="M82.3,106.8l0,3.2c-2.2-1-3.9-1.5-5.2-1.5c-0.7,0-1.3,0.1-1.7,0.4c-0.4,0.2-0.7,0.6-0.7,1
			c0,0.3,0.2,0.6,0.5,0.9c0.3,0.3,1.1,0.6,2.3,1.1c1.2,0.4,2.2,0.9,2.9,1.2s1.3,0.9,1.9,1.6c0.5,0.7,0.8,1.6,0.8,2.6
			c0,1.5-0.6,2.7-1.7,3.6c-1.2,0.9-2.7,1.3-4.5,1.3c-2,0-4-0.5-5.9-1.6l0-3.5c1.1,0.7,2.1,1.3,2.9,1.6c0.8,0.3,1.7,0.5,2.7,0.5
			c1.6,0,2.4-0.5,2.4-1.5c0-0.3-0.2-0.7-0.5-1c-0.3-0.3-1.1-0.7-2.3-1.1c-1.2-0.4-2.2-0.8-2.9-1.2c-0.7-0.4-1.3-0.9-1.8-1.6
			c-0.5-0.7-0.8-1.6-0.8-2.7c0-1.4,0.6-2.5,1.7-3.4c1.1-0.9,2.6-1.3,4.5-1.3C78.5,105.6,80.3,106,82.3,106.8z"/>
		<path class="st0" d="M95.2,105.8l7.2,16.3l-4.4,0l-1.3-3.2l-7.3,0l-1.2,3.2l-4.3,0l6.6-16.3L95.2,105.8z M95.5,116.1l-2.6-6.4
			l-2.4,6.3L95.5,116.1z"/>
		<path class="st0" d="M116.8,119.2l0,3l-12.5,0l0-16.3l4.1,0l0,13.3L116.8,119.2z"/>
	</g>
	<g>
		<path class="st0" d="M139.3,84.4L128.1,84l4.1-5.2c3.8-4.9,3.5-9.5,2.6-12.6c-1.5-4.9-5.6-8.9-10.6-10.6
			c-8.2-2.3-14.4-0.5-18.1,5.3c-3.8,6-3.5,14.5-0.7,17.9l4.8,5.6l-72.4-0.1l5.2-5.7c1.4-1.6,1.4-11.6-3.3-19
			c-3.4-5.4-8-7.2-13.7-5.5c-7,2-11.7,6-13.5,11.3c-1.5,4.4-0.6,9.2,2.4,13.2l4,5.3l-12,0.3l-0.2-6.1c-2-4.7-2.3-9.9-0.7-14.8
			c2.4-7.4,9-13.1,18-15.7c8.6-2.6,16.4,0.5,21.4,8.5c4,6.4,5.8,15.2,4.9,21.4l47,0.1c-1.8-6.2-0.8-14.3,3-20.3
			c5.3-8.3,14.7-11.2,25.7-8.1l0.1,0c7.2,2.3,13,8.1,15.1,15.1c1.7,5.4,1,11-1.9,16L139.3,84.4z"/>
	</g>
	<g>
		<path class="st1" d="M76.3,139.4c14-1.5,25.7-1.4,25.7-1.4l-11.2,9.7L76.3,139.4z"/>
		<path class="st1" d="M90.8,149.7c-0.3,0-0.7-0.1-1-0.3l-14.5-8.3c-0.7-0.4-1.1-1.3-0.9-2.1c0.2-0.8,0.9-1.4,1.7-1.5
			C90,136,101.9,136,102,136c0.8,0,1.5,0.5,1.8,1.3c0.3,0.8,0.1,1.6-0.6,2.1L92,149.2C91.7,149.5,91.2,149.7,90.8,149.7z
			 M82.6,140.8l7.9,4.6l6.1-5.3C93.2,140.1,88.2,140.3,82.6,140.8z"/>
	</g>
	<g>
		<path class="st1" d="M105.2,166.8c-5.1,0-8.6-2.8-13-6.4c-0.8-0.6-1.6-1.3-2.4-1.9c-0.5-0.4-0.7-0.9-0.7-1.5l-0.2-9.2l3.9-0.1
			l0.2,8.3c0.6,0.5,1.2,1,1.7,1.4c5.8,4.7,8.5,6.9,15.3,4.6l1.2,3.7C108.9,166.5,107,166.8,105.2,166.8z"/>
	</g>
	<g>
		<path class="st1" d="M75.8,168.2c-1.7,0-3.5-0.4-5.4-1.2l1.6-3.5c5.8,2.6,9.8-0.9,14.4-5.1c1.1-1,2.3-2,3.4-3l2.4,3.1
			c-1.1,0.8-2.1,1.8-3.2,2.8C85.4,164.4,81.2,168.2,75.8,168.2z"/>
	</g>
</g>
</svg>
